<svg width="64" height="64" viewBox="0 0 64 64" fill="none" xmlns="http://www.w3.org/2000/svg">
<rect width="64" height="64" rx="15" fill="#FFF2F2"/>
<path d="M43.2039 18.529L42.1553 19.0936C40.9773 18.163 39.5793 17.4154 37.9612 16.8508C36.343 16.2861 34.5113 16.0038 32.466 16.0038C29.4239 16.0038 26.7573 16.6521 24.466 17.9487C22.1877 19.2348 20.4142 21.0437 19.1456 23.3755C17.877 25.6968 17.2427 28.4049 17.2427 31.5C17.2427 34.5532 17.8706 37.2457 19.1262 39.5775C20.3819 41.9092 22.1618 43.7286 24.466 45.0356C26.7702 46.3427 29.4887 46.9962 32.6214 46.9962C35.3916 46.9962 37.8511 46.4682 40 45.4121C42.1489 44.3455 43.8252 42.8189 45.0291 40.8322C46.233 38.8351 46.8091 36.4354 46.7573 33.6331L47.301 34.0095H33.0097V33.0057H48V34.0095C48 36.9373 47.3398 39.4468 46.0194 41.538C44.699 43.6188 42.8803 45.2186 40.5631 46.3375C38.246 47.4458 35.5987 48 32.6214 48C29.2557 48 26.3236 47.3099 23.8252 45.9297C21.3398 44.539 19.411 42.6046 18.0388 40.1264C16.6796 37.6483 16 34.7728 16 31.5C16 29.0323 16.3883 26.7894 17.165 24.7714C17.9547 22.7429 19.0744 21.0019 20.5243 19.5485C21.9871 18.0846 23.7282 16.9606 25.7476 16.1763C27.767 15.3921 30.0065 15 32.466 15C34.7961 15 36.8544 15.3241 38.6408 15.9724C40.4272 16.6207 41.9482 17.4729 43.2039 18.529Z" fill="#84312A"/>
</svg>
