<svg width="473" height="27" viewBox="0 0 473 27" fill="none" xmlns="http://www.w3.org/2000/svg">
<path d="M6.29102 7.20752H18.8744V9.7242H6.29102V7.20752ZM6.29102 12.2409H15.0994V14.7575H6.29102V12.2409Z" fill="#C8C8C8"/>
<path d="M22.6501 0.916504H2.51667C1.12873 0.916504 0 2.04523 0 3.43318V26.0833L6.71071 21.0499H22.6501C24.038 21.0499 25.1667 19.9212 25.1667 18.5332V3.43318C25.1667 2.04523 24.038 0.916504 22.6501 0.916504ZM22.6501 18.5332H5.87266L2.51667 21.0499V3.43318H22.6501V18.5332Z" fill="#C8C8C8"/>
<path d="M86.1667 6.83333V20.1667H69.5001V6.83333H86.1667ZM87.8334 3.5H67.8334C66.9167 3.5 66.1667 4.25 66.1667 5.16667V21.8333C66.1667 22.75 66.9167 23.5 67.8334 23.5H87.8334C88.7501 23.5 89.5001 22.75 89.5001 21.8333V16L96.1667 22.6667V4.33333L89.5001 11V5.16667C89.5001 4.25 88.7501 3.5 87.8334 3.5Z" fill="#C8C8C8"/>
<path d="M86.1667 6.83333V20.1667H69.5001V6.83333H86.1667ZM87.8334 3.5H67.8334C66.9167 3.5 66.1667 4.25 66.1667 5.16667V21.8333C66.1667 22.75 66.9167 23.5 67.8334 23.5H87.8334C88.7501 23.5 89.5001 22.75 89.5001 21.8333V16L96.1667 22.6667V4.33333L89.5001 11V5.16667C89.5001 4.25 88.7501 3.5 87.8334 3.5Z" stroke="white"/>
<path d="M148.952 10.5542C146.556 10.5542 144.532 12.4097 144.532 14.6054C144.532 16.8012 146.556 18.6567 148.952 18.6567C151.347 18.6567 153.371 16.8012 153.371 14.6054C153.371 12.4097 151.347 10.5542 148.952 10.5542ZM148.952 16.631C147.775 16.631 146.742 15.6841 146.742 14.6054C146.742 13.5268 147.775 12.5798 148.952 12.5798C150.128 12.5798 151.161 13.5268 151.161 14.6054C151.161 15.6841 150.128 16.631 148.952 16.631Z" fill="#C8C8C8"/>
<path d="M158.38 6.6254H155.333L152.142 3.52371C152.033 3.4171 151.903 3.33256 151.76 3.27494C151.617 3.21732 151.464 3.18777 151.309 3.18799H146.595C146.44 3.18777 146.287 3.21732 146.144 3.27494C146.001 3.33256 145.871 3.4171 145.762 3.52371L142.572 6.6254H139.524C138.224 6.6254 137.167 7.65318 137.167 8.91701V21.5208C137.167 22.7847 138.224 23.8124 139.524 23.8124H158.38C159.68 23.8124 160.738 22.7847 160.738 21.5208V8.91701C160.738 7.65318 159.68 6.6254 158.38 6.6254ZM139.524 21.5208V8.91701H143.059C143.373 8.91701 143.672 8.7967 143.893 8.58128L147.083 5.4796H150.821L154.012 8.58128C154.121 8.68789 154.251 8.77244 154.394 8.83006C154.537 8.88767 154.69 8.91722 154.845 8.91701H158.38L158.383 21.5208H139.524Z" fill="#C8C8C8"/>
<path d="M209.238 16.1316C211.016 16.1316 212.441 14.7211 212.441 12.9737L212.452 6.65789C212.452 4.91053 211.016 3.5 209.238 3.5C207.459 3.5 206.023 4.91053 206.023 6.65789V12.9737C206.023 14.7211 207.459 16.1316 209.238 16.1316ZM214.916 12.9737C214.916 16.1316 212.195 18.3421 209.238 18.3421C206.28 18.3421 203.559 16.1316 203.559 12.9737H201.738C201.738 16.5632 204.652 19.5316 208.166 20.0474V23.5H210.309V20.0474C213.823 19.5421 216.738 16.5737 216.738 12.9737H214.916Z" fill="#C8C8C8"/>
<path d="M271.738 24H269.404V21.6667H271.738V24ZM269.404 15.8333H267.071V21.6667H269.404V15.8333ZM278.738 13.5H276.404V18.1667H278.738V13.5ZM276.404 11.1667H274.071V13.5H276.404V11.1667ZM262.404 13.5H260.071V15.8333H262.404V13.5ZM260.071 11.1667H257.738V13.5H260.071V11.1667ZM268.238 5.33333H270.571V3H268.238V5.33333ZM259.488 4.75V8.25H262.988V4.75H259.488ZM264.738 10H257.738V3H264.738V10ZM259.488 18.75V22.25H262.988V18.75H259.488ZM264.738 24H257.738V17H264.738V24ZM273.488 4.75V8.25H276.988V4.75H273.488ZM278.738 10H271.738V3H278.738V10ZM276.404 21.6667V18.1667H271.738V20.5H274.071V24H278.738V21.6667H276.404ZM274.071 13.5H269.404V15.8333H274.071V13.5ZM269.404 11.1667H262.404V13.5H264.738V15.8333H267.071V13.5H269.404V11.1667ZM270.571 10V7.66667H268.238V5.33333H265.904V10H270.571ZM262.113 5.625H260.363V7.375H262.113V5.625ZM262.113 19.625H260.363V21.375H262.113V19.625ZM276.113 5.625H274.363V7.375H276.113V5.625Z" fill="#C8C8C8"/>
<path d="M339.238 8.62516H334.904V5.37516C334.904 4.18025 333.932 3.2085 332.738 3.2085H328.404C327.209 3.2085 326.238 4.18025 326.238 5.37516V10.7918H321.904C320.709 10.7918 319.738 11.7636 319.738 12.9585V22.7085C319.738 22.9958 319.852 23.2714 320.055 23.4745C320.258 23.6777 320.534 23.7918 320.821 23.7918H340.321C340.608 23.7918 340.884 23.6777 341.087 23.4745C341.29 23.2714 341.404 22.9958 341.404 22.7085V10.7918C341.404 9.59691 340.432 8.62516 339.238 8.62516ZM321.904 12.9585H326.238V21.6252H321.904V12.9585ZM328.404 11.8752V5.37516H332.738V21.6252H328.404V11.8752ZM339.238 21.6252H334.904V10.7918H339.238V21.6252Z" fill="#C8C8C8"/>
<path fill-rule="evenodd" clip-rule="evenodd" d="M384.052 17.3975C385.107 16.3426 386.537 15.75 388.029 15.75H395.904C397.396 15.75 398.827 16.3426 399.882 17.3975C400.937 18.4524 401.529 19.8832 401.529 21.375V23.625C401.529 24.2463 401.025 24.75 400.404 24.75C399.783 24.75 399.279 24.2463 399.279 23.625V21.375C399.279 20.4799 398.924 19.6215 398.291 18.9885C397.658 18.3556 396.799 18 395.904 18H388.029C387.134 18 386.276 18.3556 385.643 18.9885C385.01 19.6215 384.654 20.4799 384.654 21.375V23.625C384.654 24.2463 384.15 24.75 383.529 24.75C382.908 24.75 382.404 24.2463 382.404 23.625V21.375C382.404 19.8832 382.997 18.4524 384.052 17.3975Z" fill="#C8C8C8"/>
<path fill-rule="evenodd" clip-rule="evenodd" d="M391.967 4.5C390.103 4.5 388.592 6.01104 388.592 7.875C388.592 9.73896 390.103 11.25 391.967 11.25C393.831 11.25 395.342 9.73896 395.342 7.875C395.342 6.01104 393.831 4.5 391.967 4.5ZM386.342 7.875C386.342 4.7684 388.86 2.25 391.967 2.25C395.073 2.25 397.592 4.7684 397.592 7.875C397.592 10.9816 395.073 13.5 391.967 13.5C388.86 13.5 386.342 10.9816 386.342 7.875Z" fill="#C8C8C8"/>
<path fill-rule="evenodd" clip-rule="evenodd" d="M404.904 7.875C405.525 7.875 406.029 8.37868 406.029 9V15.75C406.029 16.3713 405.525 16.875 404.904 16.875C404.283 16.875 403.779 16.3713 403.779 15.75V9C403.779 8.37868 404.283 7.875 404.904 7.875Z" fill="#C8C8C8"/>
<path fill-rule="evenodd" clip-rule="evenodd" d="M400.404 12.375C400.404 11.7537 400.908 11.25 401.529 11.25H408.279C408.9 11.25 409.404 11.7537 409.404 12.375C409.404 12.9963 408.9 13.5 408.279 13.5H401.529C400.908 13.5 400.404 12.9963 400.404 12.375Z" fill="#C8C8C8"/>
<path d="M465.458 3.09167L467.404 5V0H462.304L464.251 1.90833L460.706 5.38333C460.628 5.46059 460.534 5.52188 460.431 5.56369C460.328 5.60551 460.218 5.62704 460.107 5.62704C459.996 5.62704 459.885 5.60551 459.783 5.56369C459.68 5.52188 459.586 5.46059 459.508 5.38333L458.513 4.40833C458.035 3.94017 457.387 3.6772 456.711 3.6772C456.035 3.6772 455.387 3.94017 454.909 4.40833L450.404 8.825L451.603 10L456.099 5.59167C456.178 5.51441 456.271 5.45312 456.374 5.41131C456.477 5.36949 456.587 5.34796 456.698 5.34796C456.81 5.34796 456.92 5.36949 457.023 5.41131C457.126 5.45312 457.219 5.51441 457.298 5.59167L458.292 6.56667C458.77 7.03483 459.418 7.2978 460.094 7.2978C460.77 7.2978 461.418 7.03483 461.896 6.56667L465.458 3.09167Z" fill="#C8C8C8"/>
<path fill-rule="evenodd" clip-rule="evenodd" d="M465.988 8.66683C465.744 8.66683 465.511 8.76341 465.339 8.93531C465.167 9.10722 465.071 9.34038 465.071 9.5835V22.4168C465.071 22.6599 465.167 22.8931 465.339 23.065C465.511 23.2369 465.744 23.3335 465.988 23.3335H467.821C468.064 23.3335 468.297 23.2369 468.469 23.065C468.641 22.8931 468.738 22.6599 468.738 22.4168V9.5835C468.738 9.34038 468.641 9.10722 468.469 8.93531C468.297 8.76341 468.064 8.66683 467.821 8.66683H465.988ZM464.154 24.4666C464.657 24.9163 465.309 25.1668 465.988 25.1668H467.821C468.55 25.1668 469.25 24.8771 469.765 24.3614C470.281 23.8456 470.571 23.1462 470.571 22.4168V9.5835C470.571 8.85415 470.281 8.15468 469.765 7.63895C469.25 7.12323 468.55 6.8335 467.821 6.8335H465.988C465.258 6.8335 464.559 7.12323 464.043 7.63895C463.527 8.15468 463.238 8.85415 463.238 9.5835V10.6574C462.946 10.5543 462.636 10.5002 462.321 10.5002H460.488C459.758 10.5002 459.059 10.7899 458.543 11.3056C458.027 11.8213 457.738 12.5208 457.738 13.2502V14.3241C457.446 14.221 457.136 14.1668 456.821 14.1668H454.988C454.258 14.1668 453.559 14.4566 453.043 14.9723C452.527 15.488 452.238 16.1875 452.238 16.9168V22.4168C452.238 23.1462 452.527 23.8456 453.043 24.3614C453.559 24.8771 454.258 25.1668 454.988 25.1668H456.821C457.499 25.1668 458.151 24.9163 458.654 24.4666C459.157 24.9163 459.809 25.1668 460.488 25.1668H462.321C462.999 25.1668 463.651 24.9163 464.154 24.4666ZM463.238 22.4168V13.2502C463.238 13.007 463.141 12.7739 462.969 12.602C462.797 12.4301 462.564 12.3335 462.321 12.3335H460.488C460.244 12.3335 460.011 12.4301 459.839 12.602C459.667 12.7739 459.571 13.007 459.571 13.2502V22.4168C459.571 22.6599 459.667 22.8931 459.839 23.065C460.011 23.2369 460.244 23.3335 460.488 23.3335H462.321C462.564 23.3335 462.797 23.2369 462.969 23.065C463.141 22.8931 463.238 22.6599 463.238 22.4168ZM457.738 22.4168V16.9168C457.738 16.6737 457.641 16.4406 457.469 16.2686C457.297 16.0967 457.064 16.0002 456.821 16.0002H454.988C454.744 16.0002 454.511 16.0967 454.339 16.2686C454.167 16.4406 454.071 16.6737 454.071 16.9168V22.4168C454.071 22.6599 454.167 22.8931 454.339 23.065C454.511 23.2369 454.744 23.3335 454.988 23.3335H456.821C457.064 23.3335 457.297 23.2369 457.469 23.065C457.641 22.8931 457.738 22.6599 457.738 22.4168Z" fill="#C8C8C8"/>
</svg>
