<svg width="473" height="27" viewBox="0 0 473 27" fill="none" xmlns="http://www.w3.org/2000/svg">
  <path
    d="M14 24H11.6667V21.6667H14V24ZM11.6667 15.8333H9.33333V21.6667H11.6667V15.8333ZM21 13.5H18.6667V18.1667H21V13.5ZM18.6667 11.1667H16.3333V13.5H18.6667V11.1667ZM4.66667 13.5H2.33333V15.8333H4.66667V13.5ZM2.33333 11.1667H0V13.5H2.33333V11.1667ZM10.5 5.33333H12.8333V3H10.5V5.33333ZM1.75 4.75V8.25H5.25V4.75H1.75ZM7 10H0V3H7V10ZM1.75 18.75V22.25H5.25V18.75H1.75ZM7 24H0V17H7V24ZM15.75 4.75V8.25H19.25V4.75H15.75ZM21 10H14V3H21V10ZM18.6667 21.6667V18.1667H14V20.5H16.3333V24H21V21.6667H18.6667ZM16.3333 13.5H11.6667V15.8333H16.3333V13.5ZM11.6667 11.1667H4.66667V13.5H7V15.8333H9.33333V13.5H11.6667V11.1667ZM12.8333 10V7.66667H10.5V5.33333H8.16667V10H12.8333ZM4.375 5.625H2.625V7.375H4.375V5.625ZM4.375 19.625H2.625V21.375H4.375V19.625ZM18.375 5.625H16.625V7.375H18.375V5.625Z"
    fill="#C8C8C8" />
  <path
    d="M82 6.83333V20.1667H65.3333V6.83333H82ZM83.6667 3.5H63.6667C62.75 3.5 62 4.25 62 5.16667V21.8333C62 22.75 62.75 23.5 63.6667 23.5H83.6667C84.5833 23.5 85.3333 22.75 85.3333 21.8333V16L92 22.6667V4.33333L85.3333 11V5.16667C85.3333 4.25 84.5833 3.5 83.6667 3.5Z"
    fill="#C8C8C8" />
  <path
    d="M82 6.83333V20.1667H65.3333V6.83333H82ZM83.6667 3.5H63.6667C62.75 3.5 62 4.25 62 5.16667V21.8333C62 22.75 62.75 23.5 63.6667 23.5H83.6667C84.5833 23.5 85.3333 22.75 85.3333 21.8333V16L92 22.6667V4.33333L85.3333 11V5.16667C85.3333 4.25 84.5833 3.5 83.6667 3.5Z"
    stroke="white" />
  <path
    d="M140.5 16.1316C142.279 16.1316 143.704 14.7211 143.704 12.9737L143.714 6.65789C143.714 4.91053 142.279 3.5 140.5 3.5C138.721 3.5 137.286 4.91053 137.286 6.65789V12.9737C137.286 14.7211 138.721 16.1316 140.5 16.1316ZM146.179 12.9737C146.179 16.1316 143.457 18.3421 140.5 18.3421C137.543 18.3421 134.821 16.1316 134.821 12.9737H133C133 16.5632 135.914 19.5316 139.429 20.0474V23.5H141.571V20.0474C145.086 19.5421 148 16.5737 148 12.9737H146.179Z"
    fill="#C8C8C8" />
  <path
    d="M200.785 10.5542C198.389 10.5542 196.365 12.4097 196.365 14.6054C196.365 16.8012 198.389 18.6567 200.785 18.6567C203.18 18.6567 205.204 16.8012 205.204 14.6054C205.204 12.4097 203.18 10.5542 200.785 10.5542ZM200.785 16.631C199.608 16.631 198.575 15.6841 198.575 14.6054C198.575 13.5268 199.608 12.5798 200.785 12.5798C201.961 12.5798 202.995 13.5268 202.995 14.6054C202.995 15.6841 201.961 16.631 200.785 16.631Z"
    fill="#C8C8C8" />
  <path
    d="M210.214 6.6254H207.166L203.976 3.52371C203.866 3.4171 203.737 3.33256 203.594 3.27494C203.451 3.21732 203.297 3.18777 203.142 3.18799H198.428C198.274 3.18777 198.12 3.21732 197.977 3.27494C197.834 3.33256 197.704 3.4171 197.595 3.52371L194.405 6.6254H191.357C190.057 6.6254 189 7.65318 189 8.91701V21.5208C189 22.7847 190.057 23.8124 191.357 23.8124H210.214C211.514 23.8124 212.571 22.7847 212.571 21.5208V8.91701C212.571 7.65318 211.514 6.6254 210.214 6.6254ZM191.357 21.5208V8.91701H194.893C195.206 8.91701 195.506 8.7967 195.726 8.58128L198.916 5.4796H202.655L205.845 8.58128C205.954 8.68789 206.084 8.77244 206.227 8.83006C206.37 8.88767 206.523 8.91722 206.678 8.91701H210.214L210.216 21.5208H191.357Z"
    fill="#C8C8C8" />
  <path d="M259.862 7.20752H272.445V9.7242H259.862V7.20752ZM259.862 12.2409H268.67V14.7575H259.862V12.2409Z"
    fill="#C8C8C8" />
  <path
    d="M276.221 0.916504H256.087C254.7 0.916504 253.571 2.04523 253.571 3.43318V26.0833L260.282 21.0499H276.221C277.609 21.0499 278.738 19.9212 278.738 18.5332V3.43318C278.738 2.04523 277.609 0.916504 276.221 0.916504ZM276.221 18.5332H259.443L256.087 21.0499V3.43318H276.221V18.5332Z"
    fill="#C8C8C8" />
  <path fill-rule="evenodd" clip-rule="evenodd"
    d="M321.385 17.3975C322.44 16.3426 323.871 15.75 325.363 15.75H333.238C334.729 15.75 336.16 16.3426 337.215 17.3975C338.27 18.4524 338.863 19.8832 338.863 21.375V23.625C338.863 24.2463 338.359 24.75 337.738 24.75C337.116 24.75 336.613 24.2463 336.613 23.625V21.375C336.613 20.4799 336.257 19.6215 335.624 18.9885C334.991 18.3556 334.133 18 333.238 18H325.363C324.467 18 323.609 18.3556 322.976 18.9885C322.343 19.6215 321.988 20.4799 321.988 21.375V23.625C321.988 24.2463 321.484 24.75 320.863 24.75C320.241 24.75 319.738 24.2463 319.738 23.625V21.375C319.738 19.8832 320.33 18.4524 321.385 17.3975Z"
    fill="#C8C8C8" />
  <path fill-rule="evenodd" clip-rule="evenodd"
    d="M329.3 4.5C327.436 4.5 325.925 6.01104 325.925 7.875C325.925 9.73896 327.436 11.25 329.3 11.25C331.164 11.25 332.675 9.73896 332.675 7.875C332.675 6.01104 331.164 4.5 329.3 4.5ZM323.675 7.875C323.675 4.7684 326.193 2.25 329.3 2.25C332.407 2.25 334.925 4.7684 334.925 7.875C334.925 10.9816 332.407 13.5 329.3 13.5C326.193 13.5 323.675 10.9816 323.675 7.875Z"
    fill="#C8C8C8" />
  <path fill-rule="evenodd" clip-rule="evenodd"
    d="M342.238 7.875C342.859 7.875 343.363 8.37868 343.363 9V15.75C343.363 16.3713 342.859 16.875 342.238 16.875C341.616 16.875 341.113 16.3713 341.113 15.75V9C341.113 8.37868 341.616 7.875 342.238 7.875Z"
    fill="#C8C8C8" />
  <path fill-rule="evenodd" clip-rule="evenodd"
    d="M337.738 12.375C337.738 11.7537 338.241 11.25 338.863 11.25H345.613C346.234 11.25 346.738 11.7537 346.738 12.375C346.738 12.9963 346.234 13.5 345.613 13.5H338.863C338.241 13.5 337.738 12.9963 337.738 12.375Z"
    fill="#C8C8C8" />
  <path
    d="M407.238 8.62516H402.904V5.37516C402.904 4.18025 401.932 3.2085 400.738 3.2085H396.404C395.209 3.2085 394.238 4.18025 394.238 5.37516V10.7918H389.904C388.709 10.7918 387.738 11.7636 387.738 12.9585V22.7085C387.738 22.9958 387.852 23.2714 388.055 23.4745C388.258 23.6777 388.534 23.7918 388.821 23.7918H408.321C408.608 23.7918 408.884 23.6777 409.087 23.4745C409.29 23.2714 409.404 22.9958 409.404 22.7085V10.7918C409.404 9.59691 408.432 8.62516 407.238 8.62516ZM389.904 12.9585H394.238V21.6252H389.904V12.9585ZM396.404 11.8752V5.37516H400.738V21.6252H396.404V11.8752ZM407.238 21.6252H402.904V10.7918H407.238V21.6252Z"
    fill="#C8C8C8" />
  <path
    d="M465.458 3.09167L467.404 5V0H462.304L464.251 1.90833L460.706 5.38333C460.628 5.46059 460.534 5.52188 460.431 5.56369C460.328 5.60551 460.218 5.62704 460.107 5.62704C459.996 5.62704 459.885 5.60551 459.783 5.56369C459.68 5.52188 459.586 5.46059 459.508 5.38333L458.513 4.40833C458.035 3.94016 457.387 3.6772 456.711 3.6772C456.035 3.6772 455.387 3.94016 454.909 4.40833L450.404 8.825L451.603 10L456.099 5.59167C456.178 5.51441 456.271 5.45312 456.374 5.41131C456.477 5.36949 456.587 5.34796 456.698 5.34796C456.81 5.34796 456.92 5.36949 457.023 5.41131C457.126 5.45312 457.219 5.51441 457.298 5.59167L458.292 6.56667C458.77 7.03483 459.418 7.2978 460.094 7.2978C460.77 7.2978 461.418 7.03483 461.896 6.56667L465.458 3.09167Z"
    fill="#C8C8C8" />
  <path fill-rule="evenodd" clip-rule="evenodd"
    d="M465.988 8.66683C465.744 8.66683 465.511 8.76341 465.339 8.93531C465.167 9.10722 465.071 9.34038 465.071 9.5835V22.4168C465.071 22.6599 465.167 22.8931 465.339 23.065C465.511 23.2369 465.744 23.3335 465.988 23.3335H467.821C468.064 23.3335 468.297 23.2369 468.469 23.065C468.641 22.8931 468.738 22.6599 468.738 22.4168V9.5835C468.738 9.34038 468.641 9.10722 468.469 8.93531C468.297 8.76341 468.064 8.66683 467.821 8.66683H465.988ZM464.154 24.4666C464.657 24.9163 465.309 25.1668 465.988 25.1668H467.821C468.55 25.1668 469.25 24.8771 469.765 24.3614C470.281 23.8456 470.571 23.1462 470.571 22.4168V9.5835C470.571 8.85415 470.281 8.15468 469.765 7.63895C469.25 7.12323 468.55 6.8335 467.821 6.8335H465.988C465.258 6.8335 464.559 7.12323 464.043 7.63895C463.527 8.15468 463.238 8.85415 463.238 9.5835V10.6574C462.946 10.5543 462.636 10.5002 462.321 10.5002H460.488C459.758 10.5002 459.059 10.7899 458.543 11.3056C458.027 11.8213 457.738 12.5208 457.738 13.2502V14.3241C457.446 14.221 457.136 14.1668 456.821 14.1668H454.988C454.258 14.1668 453.559 14.4566 453.043 14.9723C452.527 15.488 452.238 16.1875 452.238 16.9168V22.4168C452.238 23.1462 452.527 23.8456 453.043 24.3614C453.559 24.8771 454.258 25.1668 454.988 25.1668H456.821C457.499 25.1668 458.151 24.9163 458.654 24.4666C459.157 24.9163 459.809 25.1668 460.488 25.1668H462.321C462.999 25.1668 463.651 24.9163 464.154 24.4666ZM463.238 22.4168V13.2502C463.238 13.007 463.141 12.7739 462.969 12.602C462.797 12.4301 462.564 12.3335 462.321 12.3335H460.488C460.244 12.3335 460.011 12.4301 459.839 12.602C459.667 12.7739 459.571 13.007 459.571 13.2502V22.4168C459.571 22.6599 459.667 22.8931 459.839 23.065C460.011 23.2369 460.244 23.3335 460.488 23.3335H462.321C462.564 23.3335 462.797 23.2369 462.969 23.065C463.141 22.8931 463.238 22.6599 463.238 22.4168ZM457.738 22.4168V16.9168C457.738 16.6737 457.641 16.4406 457.469 16.2686C457.297 16.0967 457.064 16.0002 456.821 16.0002H454.988C454.744 16.0002 454.511 16.0967 454.339 16.2686C454.167 16.4406 454.071 16.6737 454.071 16.9168V22.4168C454.071 22.6599 454.167 22.8931 454.339 23.065C454.511 23.2369 454.744 23.3335 454.988 23.3335H456.821C457.064 23.3335 457.297 23.2369 457.469 23.065C457.641 22.8931 457.738 22.6599 457.738 22.4168Z"
    fill="#C8C8C8" />
</svg>
