<svg width="137" height="20" viewBox="0 0 137 20" fill="none" xmlns="http://www.w3.org/2000/svg">
<path d="M12.5308 1.86816L8.48858 11.0759L4.4464 1.86816H0L8.48858 19.5L16.9772 1.86816H12.5308Z" fill="#86332C"/>
<path d="M22.7884 16.0717C22.3084 16.0717 21.8284 15.9982 21.5252 15.8268L28.7001 11.6637C27.7653 7.77004 24.6832 6.96191 22.94 6.96191C18.7209 6.96191 16.1693 9.75362 16.1693 13.231C16.1693 16.7084 18.7209 19.5001 22.94 19.5001C24.8853 19.5001 26.5527 18.8144 27.8917 17.5655L25.82 14.9452C25.0874 15.6064 24.001 16.0717 22.7884 16.0717ZM22.94 10.3903C23.5968 10.3903 24.0516 10.7087 24.2537 11.027L20.0599 13.4514C19.8073 11.6148 21.222 10.3903 22.94 10.3903Z" fill="#86332C"/>
<path d="M34.3586 9.53322V7.35373H30.3164V19.1083H34.3586V14.7738C34.3586 12.8637 35.4197 11.5903 36.5818 11.2719C37.3144 11.076 38.0471 11.0515 38.805 11.2719V6.96191C36.5312 7.10885 35.1923 7.8435 34.3586 9.53322Z" fill="#86332C"/>
<path d="M45.0706 1.08447H41.0284V19.1082H45.0706V17.9327C45.9801 18.9857 47.2938 19.5 48.6833 19.5C52.1445 19.5 54.7719 16.7083 54.7719 13.2309C54.7719 9.75348 52.1445 6.96177 48.6833 6.96177C47.2938 6.96177 45.9801 7.47603 45.0706 8.52905V1.08447ZM47.9002 15.9736C46.3338 15.9736 45.0706 14.7492 45.0706 13.2309C45.0706 11.7126 46.3338 10.4881 47.9002 10.4881C49.4665 10.4881 50.7297 11.7126 50.7297 13.2309C50.7297 14.7492 49.4665 15.9736 47.9002 15.9736Z" fill="#86332C"/>
<path d="M68.1107 19.1083V12.9861C68.1107 8.57816 65.4075 6.96191 62.4516 6.96191C60.4811 6.96191 58.7379 7.54963 57.8031 8.13736L59.0158 10.9536C59.7232 10.5617 60.8853 10.1944 61.8453 10.1944C63.2601 10.1944 63.9675 10.9781 64.018 12.0066C60.4558 10.9536 56.3884 12.2025 56.3884 15.4105C56.3884 17.59 57.9547 19.5001 60.7842 19.5001C62.199 19.5001 63.3106 18.9614 64.0685 18.1288V19.1083H68.1107ZM64.0685 14.4555C63.8917 16.0227 62.7801 16.7574 61.8706 16.7574C61.0874 16.7574 60.4306 16.2431 60.4306 15.484C60.4306 14.1616 62.1737 13.8922 64.0685 14.4555Z" fill="#86332C"/>
<path d="M70.7378 1.08447V19.1082H74.78V1.08447H70.7378Z" fill="#86332C"/>
<path d="M77.8126 19.1081H81.8547V7.35352H77.8126V19.1081Z" fill="#86332C"/>
<path d="M94.5876 19.1081V15.5817H90.3433L94.9918 7.35352H84.4822V10.8799H88.7265L84.0779 19.1081H94.5876Z" fill="#86332C"/>
<path d="M108.331 19.1083V12.9861C108.331 8.57816 105.628 6.96191 102.672 6.96191C100.701 6.96191 98.9582 7.54963 98.0235 8.13736L99.2361 10.9536C99.9435 10.5617 101.106 10.1944 102.066 10.1944C103.48 10.1944 104.188 10.9781 104.238 12.0066C100.676 10.9536 96.6087 12.2025 96.6087 15.4105C96.6087 17.59 98.1751 19.5001 101.005 19.5001C102.419 19.5001 103.531 18.9614 104.289 18.1288V19.1083H108.331ZM104.289 14.4555C104.112 16.0227 103 16.7574 102.091 16.7574C101.308 16.7574 100.651 16.2431 100.651 15.484C100.651 14.1616 102.394 13.8922 104.289 14.4555Z" fill="#86332C"/>
<path d="M118.305 16.0684C116.638 16.0684 115.375 14.844 115.375 13.3257C115.375 11.8074 116.638 10.583 118.305 10.583C119.215 10.583 120.023 10.9748 120.579 11.6115L122.651 8.99123C121.463 7.74232 119.846 7.05664 118.103 7.05664C113.884 7.05664 111.333 9.84834 111.333 13.3257C111.333 16.8031 113.884 19.5948 118.103 19.5948C119.846 19.5948 121.463 18.9091 122.651 17.6602L120.579 15.0399C120.023 15.6766 119.215 16.0684 118.305 16.0684Z" fill="#333333"/>
<path d="M137 19.2028L132.857 13.0316L136.596 7.44824H132.048L130.33 10.3379L128.613 7.44824H124.065L127.804 13.0316L123.661 19.2028H128.208L130.33 15.7499L132.453 19.2028H137Z" fill="#333333"/>
<path d="M79.8446 1.08154C79.5225 1.08154 79.2036 1.14302 78.906 1.26249C78.6085 1.38196 78.3381 1.55707 78.1104 1.77783C77.8826 1.99858 77.702 2.26067 77.5787 2.54909C77.4555 2.83752 77.392 3.14666 77.392 3.45885C77.392 3.77104 77.4555 4.08019 77.5787 4.36862C77.702 4.65705 77.8826 4.91912 78.1104 5.13987C78.3381 5.36063 78.6085 5.53573 78.906 5.65521C79.2036 5.77468 79.5225 5.83618 79.8446 5.83617C80.1667 5.83618 80.4856 5.77468 80.7831 5.65521C81.0807 5.53573 81.3511 5.36063 81.5788 5.13987C81.8065 4.91912 81.9872 4.65705 82.1104 4.36862C82.2337 4.08019 82.2971 3.77104 82.2971 3.45885C82.2969 3.41703 82.2955 3.37522 82.293 3.33347C81.3299 3.22567 79.8477 2.83442 81.1773 1.46357C80.7803 1.21429 80.3176 1.08162 79.8446 1.08154Z" fill="#86332C"/>
<path d="M83.1396 0.727089C83.1324 0.721361 83.1252 0.715681 83.118 0.710032C83.1015 0.697153 83.0848 0.684481 83.0679 0.672016C83.0511 0.659578 83.0342 0.647349 83.0171 0.63533C82.9999 0.623214 82.9826 0.611308 82.9651 0.599623C82.9476 0.588069 82.93 0.576723 82.9122 0.565607C82.8944 0.554321 82.8765 0.54326 82.8585 0.53242C82.8404 0.521726 82.8222 0.511253 82.8038 0.501013C82.7854 0.490728 82.7669 0.48069 82.7483 0.470867C82.7298 0.461067 82.7112 0.451488 82.6924 0.44215C82.6736 0.43277 82.6546 0.423621 82.6356 0.414713C82.6187 0.406983 82.6017 0.39944 82.5846 0.392085L81.635 1.66519C81.6723 1.69677 81.7085 1.72942 81.7437 1.76311C81.7791 1.79691 81.8133 1.83173 81.8465 1.86752L83.1396 0.727089Z" fill="#86332C"/>
<path d="M83.7974 1.53551C83.7942 1.52886 83.7911 1.52221 83.7879 1.51559C83.7785 1.49712 83.7688 1.47878 83.759 1.46055C83.7492 1.4423 83.7391 1.42417 83.7289 1.40616C83.7185 1.38823 83.7078 1.37043 83.697 1.35276C83.6862 1.33505 83.6752 1.31748 83.6639 1.30004C83.6525 1.28265 83.6409 1.2654 83.6291 1.2483C83.6173 1.23112 83.6053 1.21409 83.5931 1.19721C83.5809 1.18035 83.5686 1.16364 83.556 1.14709C83.5433 1.13054 83.5304 1.11415 83.5173 1.09793C83.5042 1.08169 83.491 1.06562 83.4775 1.04971C83.464 1.03375 83.4502 1.01796 83.4362 1.00235C83.4346 1.00057 83.4331 0.998809 83.4315 0.997039L82.0337 2.09518L82.0354 2.09808C82.0363 2.09913 82.0372 2.10017 82.0381 2.10122L82.0401 2.10395L82.0419 2.10686L82.0439 2.10959C82.0447 2.11069 82.0455 2.11179 82.0463 2.11289L82.0483 2.11563L82.0501 2.11853C82.0509 2.11963 82.0517 2.12074 82.0524 2.12185L82.0545 2.12457L82.0562 2.12747C82.0571 2.12852 82.058 2.12958 82.0589 2.13063L82.0606 2.13353L82.0627 2.13627L82.0644 2.13916C82.0652 2.14026 82.066 2.14137 82.0668 2.14247L82.0688 2.14521L82.0705 2.14811C82.0713 2.14922 82.0721 2.15031 82.0729 2.15141L82.0747 2.15432L82.0767 2.15705C82.0774 2.15821 82.0788 2.16054 82.0788 2.16054L82.0808 2.16326L82.0828 2.16599L82.0846 2.1689C82.0854 2.17 82.0862 2.17111 82.087 2.17221L82.0887 2.17512L82.0904 2.17801C82.0911 2.17917 82.0925 2.1815 82.0925 2.1815L82.0945 2.18423L82.0966 2.18696C82.0973 2.18812 82.0987 2.19044 82.0987 2.19044L82.1007 2.19317L82.1021 2.19624L82.1042 2.19898C82.1049 2.20014 82.1062 2.20245 82.1062 2.20245L82.1083 2.20518L82.1097 2.20826C82.1105 2.20936 82.1113 2.21047 82.1121 2.21158L82.1141 2.21431L82.1156 2.21737L82.1176 2.2201C82.1183 2.22126 82.1197 2.22359 82.1197 2.22359L82.1214 2.2265L82.1231 2.2294C82.1239 2.2305 82.1247 2.2316 82.1255 2.2327L82.1273 2.23561L82.129 2.23851C82.1297 2.23967 82.1311 2.24198 82.1311 2.24198L82.1328 2.24489L82.1345 2.24779L82.1363 2.2507C82.137 2.25186 82.1383 2.25419 82.1383 2.25419L82.1404 2.2569L82.1418 2.25998C82.1426 2.26108 82.1434 2.26219 82.1442 2.26329L82.1456 2.26637L82.1477 2.2691L82.1491 2.27216C82.1498 2.27332 82.1512 2.27565 82.1512 2.27565L82.1532 2.27838L82.1546 2.28146L82.1567 2.28417C82.1573 2.28539 82.1578 2.28662 82.1584 2.28784L82.1602 2.29074L82.1616 2.29382C82.1624 2.29492 82.1632 2.29601 82.164 2.29712L82.1657 2.30002L82.1671 2.3031L82.1689 2.306C82.1696 2.30716 82.171 2.30949 82.171 2.30949L82.1727 2.31238L82.1741 2.31545L82.1758 2.31836C82.1765 2.31952 82.1779 2.32185 82.1779 2.32185L82.1796 2.32473L82.1814 2.32764L82.1828 2.33071C82.1835 2.33187 82.1849 2.3342 82.1849 2.3342L82.1863 2.33728L83.7974 1.53551Z" fill="#86332C"/>
<path d="M84.0393 2.64505L84.0397 2.64173C84.0402 2.62133 84.0405 2.60093 84.0406 2.58052C84.0406 2.56004 84.0403 2.53955 84.0398 2.51908C84.0392 2.49854 84.0384 2.478 84.0372 2.45747C84.0362 2.43704 84.0349 2.41662 84.0333 2.39622C84.0317 2.3758 84.0298 2.35539 84.0277 2.33502C84.0255 2.31469 84.0231 2.29439 84.0203 2.27412C84.0176 2.2538 84.0146 2.23352 84.0113 2.21328C84.008 2.19298 84.0045 2.17272 84.0007 2.15251C83.997 2.13234 83.993 2.11222 83.9887 2.09215C83.9844 2.07205 83.9797 2.05201 83.9748 2.03201L83.9743 2.02845L82.2413 2.44763C82.2617 2.49019 82.2808 2.53332 82.2986 2.57694C82.3165 2.62059 82.333 2.66472 82.3482 2.70929L84.0393 2.64505Z" fill="#86332C"/>
</svg>
