<svg width="933" height="128" viewBox="0 0 933 128" fill="none" xmlns="http://www.w3.org/2000/svg">
<path d="M57 63H654V65H57V63Z" fill="#88322B"/>
<rect x="0.5" y="0.5" width="127" height="127" rx="63.5" fill="white"/>
<rect x="0.5" y="0.5" width="127" height="127" rx="63.5" stroke="#88322B"/>
<path d="M90.375 40.5H35.75V46.25H42.3625L51.7925 72.125C52.3857 73.8027 53.4832 75.2559 54.9347 76.2853C56.3862 77.3147 58.1205 77.87 59.9 77.875H84.625V72.125H59.9C59.3091 72.1248 58.7327 71.9425 58.2492 71.6029C57.7656 71.2634 57.3984 70.7832 57.1975 70.2275L55.875 66.375H82.555C83.8028 66.3732 85.0162 65.9655 86.012 65.2135C87.0077 64.4615 87.7318 63.406 88.075 62.2063L93.25 44.1513C93.3669 43.7737 93.4046 43.3761 93.361 42.9834C93.3173 42.5906 93.1931 42.211 92.9961 41.8684C92.7992 41.5257 92.5337 41.2274 92.2163 40.9919C91.8989 40.7565 91.5363 40.589 91.1513 40.5C90.8942 40.4581 90.6321 40.4581 90.375 40.5ZM82.4688 60.625H53.7188L48.4862 46.25H86.5513L82.4688 60.625Z" fill="#88322B"/>
<path d="M60.1875 89.375C62.5692 89.375 64.5 87.4442 64.5 85.0625C64.5 82.6808 62.5692 80.75 60.1875 80.75C57.8058 80.75 55.875 82.6808 55.875 85.0625C55.875 87.4442 57.8058 89.375 60.1875 89.375Z" fill="#88322B"/>
<path d="M77.4375 89.375C79.8192 89.375 81.75 87.4442 81.75 85.0625C81.75 82.6808 79.8192 80.75 77.4375 80.75C75.0558 80.75 73.125 82.6808 73.125 85.0625C73.125 87.4442 75.0558 89.375 77.4375 89.375Z" fill="#88322B"/>
<rect x="266.5" y="0.5" width="127" height="127" rx="63.5" fill="white"/>
<rect x="266.5" y="0.5" width="127" height="127" rx="63.5" stroke="#88322B"/>
<path d="M338.333 89H332.778V83.4444H338.333V89ZM332.778 69.5556H327.222V83.4444H332.778V69.5556ZM355 64H349.444V75.1111H355V64ZM349.444 58.4444H343.889V64H349.444V58.4444ZM316.111 64H310.556V69.5556H316.111V64ZM310.556 58.4444H305V64H310.556V58.4444ZM330 44.5556H335.556V39H330V44.5556ZM309.167 43.1667V51.5H317.5V43.1667H309.167ZM321.667 55.6667H305V39H321.667V55.6667ZM309.167 76.5V84.8333H317.5V76.5H309.167ZM321.667 89H305V72.3333H321.667V89ZM342.5 43.1667V51.5H350.833V43.1667H342.5ZM355 55.6667H338.333V39H355V55.6667ZM349.444 83.4444V75.1111H338.333V80.6667H343.889V89H355V83.4444H349.444ZM343.889 64H332.778V69.5556H343.889V64ZM332.778 58.4444H316.111V64H321.667V69.5556H327.222V64H332.778V58.4444ZM335.556 55.6667V50.1111H330V44.5556H324.444V55.6667H335.556ZM315.417 45.25H311.25V49.4167H315.417V45.25ZM315.417 78.5833H311.25V82.75H315.417V78.5833ZM348.75 45.25H344.583V49.4167H348.75V45.25Z" fill="#88322B"/>
<rect x="534.5" y="0.5" width="127" height="127" rx="63.5" fill="white"/>
<rect x="534.5" y="0.5" width="127" height="127" rx="63.5" stroke="#88322B"/>
<path d="M605.4 22.29V17.25C605.4 16.0125 604.365 15 603.1 15H589.3C588.035 15 587 16.0125 587 17.25V30.75C587 31.9875 588.035 33 589.3 33H603.1C604.365 33 605.4 31.9875 605.4 30.75V25.71L610 30.1875V17.8125L605.4 22.29ZM603.1 30.75H589.3V17.25H603.1V30.75ZM598.063 23.4375L595.05 27.375L593.187 24.9338L590.45 28.5H601.95L598.063 23.4375Z" fill="#88322B"/>
<path d="M623.375 58.1667V55.0417H625.625V58.1667H629V60.25H625.625V63.375H623.375V60.25H620V58.1667H623.375ZM626.75 64.4167V61.2917H630.125V58.1667H638L640.059 60.25H643.625C644.862 60.25 645.875 61.1875 645.875 62.3333V74.8333C645.875 75.9792 644.862 76.9167 643.625 76.9167H625.625C624.387 76.9167 623.375 75.9792 623.375 74.8333V64.4167H626.75ZM634.625 73.7917C637.73 73.7917 640.25 71.4583 640.25 68.5833C640.25 65.7083 637.73 63.375 634.625 63.375C631.52 63.375 629 65.7083 629 68.5833C629 71.4583 631.52 73.7917 634.625 73.7917ZM631.025 68.5833C631.025 70.4271 632.634 71.9167 634.625 71.9167C636.616 71.9167 638.225 70.4271 638.225 68.5833C638.225 66.7396 636.616 65.25 634.625 65.25C632.634 65.25 631.025 66.7396 631.025 68.5833Z" fill="#88322B"/>
<path d="M600.5 105.632C602.041 105.632 603.276 104.221 603.276 102.474L603.286 96.1579C603.286 94.4105 602.041 93 600.5 93C598.959 93 597.714 94.4105 597.714 96.1579V102.474C597.714 104.221 598.959 105.632 600.5 105.632ZM605.421 102.474C605.421 105.632 603.063 107.842 600.5 107.842C597.937 107.842 595.579 105.632 595.579 102.474H594C594 106.063 596.526 109.032 599.571 109.547V113H601.429V109.547C604.474 109.042 607 106.074 607 102.474H605.421Z" fill="#88322B"/>
<path d="M574.655 58.1667C574.655 57.0208 573.617 56.0833 572.333 56.0833H553.667C552.383 56.0833 551.333 57.0208 551.333 58.1667V70.6667C551.333 71.8125 552.383 72.75 553.667 72.75H570L574.667 76.9167L574.655 58.1667ZM570 68.5833H556V66.5H570V68.5833ZM570 65.4583H556V63.375H570V65.4583ZM570 62.3333H556V60.25H570V62.3333Z" fill="#88322B"/>
<path fill-rule="evenodd" clip-rule="evenodd" d="M568.853 37.0214C573.889 31.3831 580.428 27.2977 587.703 25.2444L587.839 25.7256C580.655 27.7531 574.198 31.7871 569.226 37.3545C564.254 42.9219 560.972 49.7917 559.766 57.1582L559.272 57.0774C560.494 49.6171 563.817 42.6597 568.853 37.0214Z" fill="#88322B"/>
<path fill-rule="evenodd" clip-rule="evenodd" d="M572.365 93.4504C565.802 87.7234 561.302 79.9992 559.556 71.4654L560.046 71.3652C561.77 79.7917 566.213 87.4187 572.694 93.0737C579.174 98.7286 587.333 102.098 595.915 102.665L595.882 103.164C587.191 102.59 578.928 99.1774 572.365 93.4504Z" fill="#88322B"/>
<path fill-rule="evenodd" clip-rule="evenodd" d="M636.204 76.087C633.966 82.7909 629.982 88.7768 624.66 93.4282C619.339 98.0795 612.874 101.228 605.931 102.549L605.837 102.058C612.693 100.753 619.077 97.6445 624.331 93.0517C629.586 88.4589 633.52 82.5482 635.73 75.9286L636.204 76.087Z" fill="#88322B"/>
<path fill-rule="evenodd" clip-rule="evenodd" d="M608.563 25.045C616.251 27.057 623.16 31.3273 628.397 37.3046C633.635 43.282 636.96 50.6919 637.944 58.5779L637.448 58.6398C636.476 50.853 633.193 43.5363 628.021 37.6341C622.85 31.732 616.028 27.5154 608.437 25.5287L608.563 25.045Z" fill="#88322B"/>
<rect x="805" width="128" height="128" rx="64" fill="#88322B"/>
<path fill-rule="evenodd" clip-rule="evenodd" d="M881.417 51.3333C880.997 51.3333 880.594 51.5002 880.297 51.7971C880 52.094 879.833 52.4967 879.833 52.9167C879.833 53.3366 880 53.7393 880.297 54.0363C880.594 54.3332 880.997 54.5 881.417 54.5H884.583C885.003 54.5 885.406 54.3332 885.703 54.0363C886 53.7393 886.167 53.3366 886.167 52.9167C886.167 52.4967 886 52.094 885.703 51.7971C885.406 51.5002 885.003 51.3333 884.583 51.3333H881.417ZM889.062 54.5C888.828 55.1617 888.448 55.7697 887.942 56.2754C887.051 57.1662 885.843 57.6667 884.583 57.6667H881.417C880.157 57.6667 878.949 57.1662 878.058 56.2754C877.552 55.7697 877.172 55.1617 876.938 54.5H875.083C874.664 54.5 874.261 54.6668 873.964 54.9638C873.667 55.2607 873.5 55.6634 873.5 56.0833V75.0833C873.5 75.5033 873.667 75.906 873.964 76.2029C874.261 76.4999 874.664 76.6667 875.083 76.6667H890.917C891.337 76.6667 891.739 76.4999 892.036 76.2029C892.333 75.906 892.5 75.5033 892.5 75.0833V56.0833C892.5 55.6634 892.333 55.2607 892.036 54.9638C891.739 54.6668 891.337 54.5 890.917 54.5H889.062ZM889.062 51.3333C888.828 50.6717 888.448 50.0636 887.942 49.5579C887.051 48.6671 885.843 48.1667 884.583 48.1667H881.417C880.157 48.1667 878.949 48.6671 878.058 49.5579C877.552 50.0636 877.172 50.6717 876.938 51.3333H875.083C873.824 51.3333 872.616 51.8338 871.725 52.7246C870.834 53.6154 870.333 54.8236 870.333 56.0833V75.0833C870.333 76.3431 870.834 77.5513 871.725 78.4421C872.616 79.3329 873.824 79.8333 875.083 79.8333H890.917C892.177 79.8333 893.385 79.3329 894.276 78.4421C895.166 77.5513 895.667 76.3431 895.667 75.0833V56.0833C895.667 54.8236 895.166 53.6154 894.276 52.7246C893.385 51.8338 892.177 51.3333 890.917 51.3333H889.062ZM876.667 64C876.667 63.1256 877.376 62.4167 878.25 62.4167H878.266C879.14 62.4167 879.849 63.1256 879.849 64C879.849 64.8745 879.14 65.5833 878.266 65.5833H878.25C877.376 65.5833 876.667 64.8745 876.667 64ZM881.417 64C881.417 63.1256 882.126 62.4167 883 62.4167H887.75C888.625 62.4167 889.333 63.1256 889.333 64C889.333 64.8745 888.625 65.5833 887.75 65.5833H883C882.126 65.5833 881.417 64.8745 881.417 64ZM876.667 70.3333C876.667 69.4589 877.376 68.75 878.25 68.75H878.266C879.14 68.75 879.849 69.4589 879.849 70.3333C879.849 71.2078 879.14 71.9167 878.266 71.9167H878.25C877.376 71.9167 876.667 71.2078 876.667 70.3333ZM881.417 70.3333C881.417 69.4589 882.126 68.75 883 68.75H887.75C888.625 68.75 889.333 69.4589 889.333 70.3333C889.333 71.2078 888.625 71.9167 887.75 71.9167H883C882.126 71.9167 881.417 71.2078 881.417 70.3333Z" fill="white"/>
<path fill-rule="evenodd" clip-rule="evenodd" d="M853.25 53.6C852.945 53.6 852.652 53.737 852.437 53.9808C852.221 54.2246 852.1 54.5552 852.1 54.9V73.1C852.1 73.4448 852.221 73.7754 852.437 74.0192C852.652 74.263 852.945 74.4 853.25 74.4H855.55C855.855 74.4 856.148 74.263 856.363 74.0192C856.579 73.7754 856.7 73.4448 856.7 73.1V54.9C856.7 54.5552 856.579 54.2246 856.363 53.9808C856.148 53.737 855.855 53.6 855.55 53.6H853.25ZM850.95 76.0069C851.581 76.6447 852.399 77 853.25 77H855.55C856.465 77 857.343 76.5891 857.99 75.8577C858.637 75.1263 859 74.1343 859 73.1V54.9C859 53.8657 858.637 52.8737 857.99 52.1423C857.343 51.4109 856.465 51 855.55 51H853.25C852.335 51 851.457 51.4109 850.81 52.1423C850.163 52.8737 849.8 53.8657 849.8 54.9V56.423C849.434 56.2768 849.046 56.2 848.65 56.2H846.35C845.435 56.2 844.557 56.6109 843.91 57.3423C843.263 58.0737 842.9 59.0657 842.9 60.1V61.623C842.534 61.4768 842.146 61.4 841.75 61.4H839.45C838.535 61.4 837.657 61.8109 837.01 62.5423C836.363 63.2737 836 64.2657 836 65.3V73.1C836 74.1343 836.363 75.1263 837.01 75.8577C837.657 76.5891 838.535 77 839.45 77H841.75C842.601 77 843.419 76.6447 844.05 76.0069C844.681 76.6447 845.499 77 846.35 77H848.65C849.501 77 850.319 76.6447 850.95 76.0069ZM849.8 73.1V60.1C849.8 59.7552 849.679 59.4246 849.463 59.1808C849.248 58.937 848.955 58.8 848.65 58.8H846.35C846.045 58.8 845.752 58.937 845.537 59.1808C845.321 59.4246 845.2 59.7552 845.2 60.1V73.1C845.2 73.4448 845.321 73.7754 845.537 74.0192C845.752 74.263 846.045 74.4 846.35 74.4H848.65C848.955 74.4 849.248 74.263 849.463 74.0192C849.679 73.7754 849.8 73.4448 849.8 73.1ZM842.9 73.1V65.3C842.9 64.9552 842.779 64.6246 842.563 64.3808C842.348 64.137 842.055 64 841.75 64H839.45C839.145 64 838.852 64.137 838.637 64.3808C838.421 64.6246 838.3 64.9552 838.3 65.3V73.1C838.3 73.4448 838.421 73.7754 838.637 74.0192C838.852 74.263 839.145 74.4 839.45 74.4H841.75C842.055 74.4 842.348 74.263 842.563 74.0192C842.779 73.7754 842.9 73.4448 842.9 73.1Z" fill="white"/>
</svg>
