<svg width="64" height="64" viewBox="0 0 64 64" fill="none" xmlns="http://www.w3.org/2000/svg">
  <rect width="64" height="64" rx="15" fill="#FFF2F2" />
  <path
    d="M37.4747 18.7943L39.8636 21.1364V15H33.6045L35.9934 17.342L31.6434 21.6068C31.5469 21.7016 31.4322 21.7768 31.306 21.8282C31.1798 21.8795 31.0445 21.9059 30.9079 21.9059C30.7713 21.9059 30.636 21.8795 30.5098 21.8282C30.3836 21.7768 30.269 21.7016 30.1725 21.6068L28.952 20.4102C28.3652 19.8357 27.5697 19.5129 26.7404 19.5129C25.9111 19.5129 25.1157 19.8357 24.5289 20.4102L19 25.8307L20.4709 27.2727L25.9893 21.8625C26.0858 21.7677 26.2005 21.6925 26.3267 21.6411C26.4529 21.5898 26.5881 21.5634 26.7248 21.5634C26.8614 21.5634 26.9967 21.5898 27.1229 21.6411C27.2491 21.6925 27.3637 21.7677 27.4602 21.8625L28.6807 23.0591C29.2675 23.6337 30.0629 23.9564 30.8923 23.9564C31.7216 23.9564 32.517 23.6337 33.1038 23.0591L37.4747 18.7943Z"
    fill="#88322B" />
  <path fill-rule="evenodd" clip-rule="evenodd"
    d="M38.125 25.6365C37.8266 25.6365 37.5405 25.755 37.3295 25.966C37.1185 26.177 37 26.4631 37 26.7615V42.5115C37 42.8098 37.1185 43.096 37.3295 43.307C37.5405 43.5179 37.8266 43.6365 38.125 43.6365H40.375C40.6734 43.6365 40.9595 43.5179 41.1705 43.307C41.3815 43.096 41.5 42.8098 41.5 42.5115V26.7615C41.5 26.4631 41.3815 26.177 41.1705 25.966C40.9595 25.755 40.6734 25.6365 40.375 25.6365H38.125ZM35.875 45.0271C36.4921 45.579 37.2927 45.8865 38.125 45.8865H40.375C41.2701 45.8865 42.1286 45.5309 42.7615 44.898C43.3944 44.265 43.75 43.4066 43.75 42.5115V26.7615C43.75 25.8664 43.3944 25.0079 42.7615 24.375C42.1285 23.7421 41.2701 23.3865 40.375 23.3865H38.125C37.2299 23.3865 36.3715 23.7421 35.7385 24.375C35.1056 25.0079 34.75 25.8664 34.75 26.7615V28.0795C34.392 27.9529 34.0119 27.8865 33.625 27.8865H31.375C30.4799 27.8865 29.6215 28.2421 28.9885 28.875C28.3556 29.5079 28 30.3664 28 31.2615V32.5795C27.642 32.4529 27.2619 32.3865 26.875 32.3865H24.625C23.7299 32.3865 22.8714 32.7421 22.2385 33.375C21.6056 34.0079 21.25 34.8664 21.25 35.7615V42.5115C21.25 43.4066 21.6056 44.265 22.2385 44.898C22.8714 45.5309 23.7299 45.8865 24.625 45.8865H26.875C27.7073 45.8865 28.5079 45.579 29.125 45.0271C29.7421 45.579 30.5427 45.8865 31.375 45.8865H33.625C34.4573 45.8865 35.2579 45.579 35.875 45.0271ZM34.75 42.5115V31.2615C34.75 30.9631 34.6315 30.677 34.4205 30.466C34.2095 30.255 33.9234 30.1365 33.625 30.1365H31.375C31.0766 30.1365 30.7905 30.255 30.5795 30.466C30.3685 30.677 30.25 30.9631 30.25 31.2615V42.5115C30.25 42.8098 30.3685 43.096 30.5795 43.307C30.7905 43.5179 31.0766 43.6365 31.375 43.6365H33.625C33.9234 43.6365 34.2095 43.5179 34.4205 43.307C34.6315 43.096 34.75 42.8098 34.75 42.5115ZM28 42.5115V35.7615C28 35.4631 27.8815 35.177 27.6705 34.966C27.4595 34.755 27.1734 34.6365 26.875 34.6365H24.625C24.3266 34.6365 24.0405 34.755 23.8295 34.966C23.6185 35.177 23.5 35.4631 23.5 35.7615V42.5115C23.5 42.8098 23.6185 43.096 23.8295 43.307C24.0405 43.5179 24.3266 43.6365 24.625 43.6365H26.875C27.1734 43.6365 27.4595 43.5179 27.6705 43.307C27.8815 43.096 28 42.8098 28 42.5115Z"
    fill="#88322B" />
</svg>
