<svg width="64" height="64" viewBox="0 0 64 64" fill="none" xmlns="http://www.w3.org/2000/svg">
  <rect width="64" height="64" rx="15" fill="#FFF2F2" />
  <path
    d="M30.5156 20.1147C28.7407 20.1147 26.9832 20.4643 25.3434 21.1435C23.7036 21.8227 22.2137 22.8182 20.9587 24.0733C19.7036 25.3283 18.708 26.8183 18.0288 28.4581C17.3496 30.0979 17 31.8554 17 33.6303C17 35.4052 17.3496 37.1628 18.0288 38.8026C18.708 40.4424 19.7036 41.9323 20.9586 43.1873C22.2137 44.4423 23.7036 45.4379 25.3434 46.1171C26.9832 46.7963 28.7407 47.146 30.5156 47.146C32.2905 47.146 34.0481 46.7963 35.6879 46.1171C37.3277 45.4379 38.8176 44.4423 40.0726 43.1873C41.3277 41.9323 42.3232 40.4424 43.0024 38.8026C43.6817 37.1628 44.0312 35.4052 44.0312 33.6303C44.03 33.3925 44.0224 33.1549 44.0086 32.9175C38.7009 32.3046 30.5326 30.0803 37.8602 22.2866C35.6723 20.8694 33.1224 20.1152 30.5156 20.1147Z"
    fill="#FFF2F2" stroke="#88322B" />
  <path
    d="M47.9063 18.1108L41.5503 23.8815C41.4709 23.7995 41.3904 23.7184 41.309 23.6383L41.3089 23.6382C41.2178 23.5486 41.1255 23.4603 41.0319 23.3733L45.797 16.8267C45.8648 16.8597 45.9324 16.8933 45.9996 16.9275L45.9999 16.9277C46.099 16.978 46.1977 17.0297 46.2957 17.0827L46.2965 17.0831C46.3952 17.1362 46.4931 17.1904 46.5901 17.2459L46.5908 17.2463C46.6874 17.3013 46.7833 17.3576 46.8785 17.4151C46.9733 17.4734 47.0674 17.5329 47.1608 17.5936L47.1608 17.5936L47.1641 17.5957C47.2576 17.6555 47.3505 17.7166 47.4426 17.7789C47.5346 17.8419 47.6258 17.9061 47.7161 17.9714L47.7172 17.9722C47.7806 18.0178 47.8436 18.064 47.9063 18.1108Z"
    fill="#FFF2F2" stroke="#88322B" />
  <path
    d="M51.6272 22.4536L43.6042 26.5906L43.5938 26.5757L43.5841 26.5539L43.5575 26.5173L43.5498 26.5041L43.5404 26.4877L43.531 26.4715L43.531 26.4715L43.531 26.4715L43.5309 26.4714L43.5309 26.4713L43.5307 26.4709L43.5298 26.4693L43.5267 26.4641L43.5196 26.4517L43.5102 26.4354L43.5007 26.419L43.49 26.4004L43.4777 26.3829L43.4769 26.3816L43.4689 26.3678L43.4689 26.3678L43.4689 26.3678L43.4688 26.3676L43.4688 26.3676L43.4685 26.3672L43.4676 26.3656L43.4646 26.3603L43.4572 26.3476L43.4514 26.3376L43.4409 26.3141L43.4176 26.2818L43.4089 26.2625L43.3825 26.226L43.3782 26.2185L43.3676 26.1947L43.3412 26.1582L43.3299 26.1388L43.3152 26.1184L43.3076 26.1079L43.2998 26.0943L43.2903 26.0779L43.2796 26.0594L43.2673 26.0418L43.2665 26.0406L43.2551 26.0208L43.2401 26.0001L43.2362 25.9946L50.2292 20.3339C50.277 20.393 50.3242 20.4525 50.3709 20.5124L50.372 20.5137C50.4409 20.6015 50.5086 20.69 50.5752 20.7794C50.641 20.8689 50.7057 20.9592 50.7692 21.0503L50.7702 21.0518C50.8345 21.1433 50.8977 21.2358 50.9597 21.3291L50.9609 21.3308C51.0228 21.4232 51.0836 21.5165 51.1432 21.6104C51.202 21.7046 51.2595 21.7995 51.3159 21.8952L51.3169 21.8969C51.3737 21.9924 51.4292 22.0886 51.4835 22.1855C51.5324 22.2742 51.5803 22.3636 51.6272 22.4536Z"
    fill="#FFF2F2" stroke="#88322B" />
  <path
    d="M44.0344 28.6453L44.4996 28.462C44.4997 28.4621 44.4997 28.4623 44.4998 28.4624C44.554 28.6 44.606 28.7385 44.6559 28.8777L53.1358 28.4991C53.1357 28.4241 53.1348 28.3492 53.1333 28.2742C53.1309 28.1623 53.127 28.0503 53.1216 27.9383L53.1216 27.937C53.1166 27.8255 53.1101 27.7141 53.1022 27.6028L53.1022 27.6021C53.0945 27.4911 53.0853 27.3801 53.0748 27.2693C53.0637 27.1589 53.0512 27.0485 53.0373 26.9383L53.0373 26.9383C53.0234 26.8275 53.008 26.7169 52.9912 26.6065L52.9911 26.6057C52.9744 26.495 52.9563 26.3845 52.9368 26.2743L52.9366 26.2731C52.9264 26.2146 52.9158 26.1562 52.9048 26.0979L44.4161 28.2539L43.9265 28.3783C43.9634 28.4669 43.9994 28.5559 44.0344 28.6453ZM44.0344 28.6453C44.1317 28.8922 44.2217 29.1418 44.3042 29.3939L44.0344 28.6453Z"
    fill="#FFF2F2" stroke="#88322B" />
</svg>
