<svg width="24" height="24" viewBox="0 0 24 24" fill="none" xmlns="http://www.w3.org/2000/svg">
  <path
    d="M17.5858 13.5785L14.5858 12.0785C14.4677 12.0197 14.3362 11.993 14.2045 12.0012C14.0728 12.0095 13.9456 12.0523 13.8358 12.1254L12.4586 13.0441C11.8264 12.6966 11.3062 12.1763 10.9586 11.5441L11.8774 10.1669C11.9505 10.0571 11.9933 9.92992 12.0015 9.79824C12.0097 9.66655 11.9831 9.53503 11.9242 9.41694L10.4242 6.41694C10.3621 6.29138 10.266 6.18575 10.1468 6.11202C10.0277 6.03828 9.89028 5.99939 9.75017 5.99976C8.75561 5.99976 7.80179 6.39484 7.09852 7.09811C6.39526 7.80137 6.00018 8.75519 6.00017 9.74976C6.00266 11.937 6.87265 14.034 8.41928 15.5806C9.96592 17.1273 12.0629 17.9973 14.2502 17.9998C14.7426 17.9998 15.2303 17.9028 15.6852 17.7143C16.1402 17.5258 16.5536 17.2496 16.9018 16.9014C17.25 16.5532 17.5263 16.1398 17.7147 15.6848C17.9032 15.2298 18.0002 14.7422 18.0002 14.2498C18.0003 14.1104 17.9616 13.9738 17.8884 13.8553C17.8152 13.7367 17.7104 13.6409 17.5858 13.5785ZM14.2502 16.4998C12.4606 16.4978 10.7448 15.786 9.4794 14.5205C8.21396 13.2551 7.50216 11.5394 7.50017 9.74976C7.50003 9.22956 7.68014 8.72538 8.00986 8.32301C8.33958 7.92065 8.79853 7.64497 9.30861 7.54288L10.3849 9.69913L9.46892 11.0623C9.40048 11.1649 9.35842 11.2829 9.34649 11.4057C9.33455 11.5285 9.3531 11.6524 9.40049 11.7663C9.9371 13.0417 10.9517 14.0563 12.227 14.5929C12.3413 14.6424 12.4661 14.6626 12.5902 14.6518C12.7143 14.641 12.8337 14.5995 12.9377 14.531L14.3074 13.6179L16.4636 14.6941C16.3607 15.2048 16.0838 15.664 15.6802 15.9932C15.2765 16.3225 14.7711 16.5016 14.2502 16.4998ZM12.0002 2.24976C10.3169 2.24939 8.66213 2.68484 7.19704 3.51372C5.73194 4.3426 4.50641 5.53668 3.63971 6.97972C2.77302 8.42277 2.29469 10.0656 2.25129 11.7484C2.20789 13.4311 2.60089 15.0965 3.39205 16.5823L2.32799 19.7744C2.23985 20.0387 2.22706 20.3224 2.29105 20.5935C2.35504 20.8647 2.49328 21.1126 2.69029 21.3096C2.88729 21.5066 3.13526 21.6449 3.40642 21.7089C3.67757 21.7729 3.96119 21.7601 4.22549 21.6719L7.41768 20.6079C8.72527 21.3034 10.1741 21.6918 11.6543 21.7438C13.1344 21.7957 14.6069 21.5098 15.9601 20.9076C17.3132 20.3055 18.5114 19.403 19.4636 18.2687C20.4159 17.1344 21.0972 15.798 21.4559 14.3611C21.8146 12.9241 21.8412 11.4243 21.5337 9.97554C21.2263 8.52676 20.5928 7.16707 19.6813 5.99968C18.7699 4.83228 17.6045 3.88787 16.2736 3.23812C14.9427 2.58837 13.4812 2.25036 12.0002 2.24976ZM12.0002 20.2498C10.5498 20.2507 9.12495 19.8688 7.86955 19.1426C7.77763 19.0893 7.67544 19.0561 7.56974 19.0453C7.46404 19.0344 7.35724 19.0462 7.25643 19.0798L3.75018 20.2498L4.91924 16.7435C4.95294 16.6428 4.96485 16.536 4.95418 16.4303C4.94351 16.3246 4.91051 16.2224 4.85736 16.1304C3.94796 14.5581 3.58284 12.7297 3.81864 10.9287C4.05444 9.12776 4.87798 7.45496 6.16151 6.16981C7.44503 4.88466 9.11679 4.05901 10.9175 3.82093C12.7181 3.58286 14.547 3.94567 16.1204 4.85308C17.6938 5.7605 18.9238 7.16179 19.6196 8.83959C20.3153 10.5174 20.4379 12.3779 19.9684 14.1325C19.4989 15.8871 18.4634 17.4376 17.0227 18.5437C15.582 19.6498 13.8165 20.2495 12.0002 20.2498Z"
    fill="#545454" />
</svg>
