<svg width="40" height="109" viewBox="0 0 40 109" fill="none" xmlns="http://www.w3.org/2000/svg">
  <path d="M2.3186 108.6H24.5945V41.7725H2.3186V108.6Z" fill="#B5433A" />
  <path
    d="M13.5156 6.11487C11.7407 6.11486 9.98323 6.46438 8.34344 7.1436C6.70365 7.82282 5.2137 8.81837 3.95865 10.0734C2.70361 11.3284 1.70805 12.8185 1.02882 14.4582C0.349598 16.098 -2.48117e-07 17.8555 0 19.6304C-5.21148e-06 21.4053 0.3496 23.1629 1.02882 24.8027C1.70804 26.4425 2.70358 27.9324 3.95863 29.1874C5.21367 30.4425 6.70364 31.438 8.34344 32.1172C9.98323 32.7965 11.7407 33.1461 13.5156 33.1461C15.2905 33.1461 17.0481 32.7965 18.6879 32.1172C20.3277 31.438 21.8176 30.4425 23.0726 29.1874C24.3277 27.9324 25.3232 26.4425 26.0024 24.8027C26.6817 23.1629 27.0312 21.4053 27.0312 19.6304C27.03 19.3926 27.0224 19.155 27.0086 18.9176C21.7009 18.3048 13.5326 16.0804 20.8602 8.28676C18.6723 6.86956 16.1224 6.11529 13.5156 6.11487Z"
    fill="#B5433A" />
  <path
    d="M31.6813 4.0822C31.642 4.04998 31.6024 4.01802 31.5627 3.98624C31.4721 3.91378 31.3806 3.84251 31.2882 3.77241C31.196 3.70246 31.103 3.6337 31.009 3.56614C30.9148 3.49803 30.8198 3.43111 30.7238 3.36545C30.6278 3.30053 30.531 3.23679 30.4333 3.17437C30.3359 3.11098 30.2376 3.04886 30.1385 2.98801C30.0392 2.92798 29.9391 2.86921 29.8382 2.81176C29.7373 2.75406 29.6357 2.69776 29.5333 2.64269C29.4316 2.58774 29.3292 2.53404 29.2262 2.48172C29.1228 2.42916 29.0187 2.37791 28.914 2.32803C28.821 2.28476 28.7276 2.24255 28.6336 2.20141L23.3625 9.44325C23.5666 9.621 23.7653 9.8049 23.9583 9.99466C24.1519 10.185 24.3396 10.3812 24.5214 10.583L31.6813 4.0822Z"
    fill="#B5433A" />
  <path
    d="M35.2938 8.67222C35.2767 8.63468 35.2594 8.59715 35.242 8.55976C35.1908 8.45556 35.1383 8.35209 35.0845 8.24924C35.0312 8.14627 34.9765 8.04394 34.9205 7.94238C34.8639 7.84126 34.8059 7.74083 34.7467 7.6412C34.6878 7.54131 34.6277 7.44224 34.5663 7.3439C34.5042 7.24585 34.4407 7.14859 34.3761 7.05217C34.3117 6.95536 34.2462 6.85934 34.1793 6.76421C34.1131 6.66918 34.0456 6.57504 33.977 6.48174C33.9076 6.38849 33.837 6.29617 33.7652 6.20475C33.6938 6.11328 33.6214 6.02273 33.5477 5.93313C33.4735 5.84326 33.3982 5.75433 33.3218 5.66641C33.3131 5.65642 33.3045 5.64649 33.2958 5.63652L25.5663 11.8934L25.5757 11.9098C25.5806 11.9157 25.5854 11.9216 25.5903 11.9275L25.6015 11.9429L25.6109 11.9593L25.6221 11.9747C25.6264 11.9809 25.6307 11.9871 25.635 11.9933L25.6462 12.0087L25.6557 12.0251C25.66 12.0313 25.6644 12.0375 25.6687 12.0438L25.6798 12.0591L25.6892 12.0755C25.6941 12.0814 25.699 12.0873 25.7039 12.0933L25.7133 12.1096L25.7245 12.1251L25.7339 12.1413C25.7382 12.1476 25.7426 12.1538 25.7469 12.16L25.7581 12.1754L25.7675 12.1918C25.7719 12.198 25.7762 12.2042 25.7805 12.2104L25.79 12.2268L25.8011 12.2422C25.8049 12.2488 25.8125 12.2619 25.8125 12.2619L25.8236 12.2772L25.8347 12.2926L25.8442 12.309C25.8485 12.3152 25.8529 12.3215 25.8572 12.3277L25.8667 12.3441L25.8761 12.3604C25.8799 12.3669 25.8874 12.38 25.8874 12.38L25.8986 12.3954L25.9097 12.4109C25.9135 12.4174 25.921 12.4304 25.921 12.4304L25.9322 12.4458L25.9399 12.4632L25.9511 12.4786C25.9549 12.4852 25.9624 12.4982 25.9624 12.4982L25.9735 12.5136L25.9813 12.531C25.9857 12.5372 25.99 12.5434 25.9944 12.5497L26.0055 12.5651L26.0132 12.5823L26.0243 12.5977C26.0281 12.6043 26.0357 12.6174 26.0357 12.6174L26.0452 12.6338L26.0546 12.6502C26.059 12.6564 26.0633 12.6626 26.0676 12.6688L26.0771 12.6852L26.0865 12.7015C26.0903 12.7081 26.0978 12.7211 26.0978 12.7211L26.1073 12.7375L26.1167 12.7539L26.1262 12.7703C26.13 12.7768 26.1376 12.79 26.1376 12.79L26.1487 12.8052L26.1564 12.8226C26.1608 12.8288 26.1652 12.8351 26.1695 12.8413L26.1772 12.8587L26.1884 12.8741L26.1961 12.8913C26.1999 12.8979 26.2075 12.911 26.2075 12.911L26.2186 12.9264L26.2264 12.9438L26.2375 12.9591C26.2407 12.9659 26.2439 12.9729 26.2471 12.9797L26.2566 12.9961L26.2643 13.0135C26.2687 13.0197 26.273 13.0259 26.2773 13.0321L26.2868 13.0485L26.2946 13.0658L26.304 13.0822C26.3078 13.0888 26.3154 13.1019 26.3154 13.1019L26.3248 13.1182L26.3326 13.1355L26.342 13.1519C26.3458 13.1585 26.3534 13.1716 26.3534 13.1716L26.3628 13.1879L26.3722 13.2043L26.38 13.2216C26.3838 13.2282 26.3913 13.2413 26.3913 13.2413L26.3991 13.2587L35.2938 8.67222Z"
    fill="#B5433A" />
  <path
    d="M36.6264 14.9775L36.6286 14.9587C36.6324 14.843 36.6348 14.7274 36.6356 14.6117C36.6363 14.4956 36.6355 14.3795 36.6332 14.2635C36.6307 14.1471 36.6266 14.0307 36.6211 13.9144C36.6158 13.7986 36.6092 13.6829 36.601 13.5673C36.5929 13.4517 36.5834 13.336 36.5724 13.2206C36.5609 13.1055 36.5479 12.9905 36.5334 12.8757C36.5189 12.7606 36.5029 12.6458 36.4855 12.5311C36.4682 12.4162 36.4494 12.3015 36.4291 12.187C36.4092 12.0728 36.3878 11.9589 36.365 11.8453C36.3415 11.7315 36.3166 11.618 36.2902 11.5049L36.2873 11.4847L26.7228 13.914C26.8338 14.1546 26.9378 14.3984 27.0344 14.6452C27.1317 14.892 27.2216 15.1416 27.3042 15.3937L36.6264 14.9775Z"
    fill="#B5433A" />
</svg>
